<svg width="16" height="16" viewBox="0 0 16 16" fill="none" xmlns="http://www.w3.org/2000/svg">
<path fill-rule="evenodd" clip-rule="evenodd" d="M0 7.99973C0 7.70799 0.105357 7.4282 0.292893 7.22191C0.48043 7.01562 0.734784 6.89973 1 6.89973H12.586L8.292 2.17853C8.10423 1.97198 7.99874 1.69184 7.99874 1.39973C7.99874 1.10762 8.10423 0.82748 8.292 0.62093C8.47977 0.414379 8.73445 0.29834 9 0.29834C9.26555 0.29834 9.52023 0.414379 9.708 0.62093L15.708 7.22093C15.8011 7.32311 15.875 7.4445 15.9254 7.57814C15.9758 7.71178 16.0018 7.85504 16.0018 7.99973C16.0018 8.14442 15.9758 8.28768 15.9254 8.42132C15.875 8.55496 15.8011 8.67635 15.708 8.77853L9.708 15.3785C9.52023 15.5851 9.26555 15.7011 9 15.7011C8.73445 15.7011 8.47977 15.5851 8.292 15.3785C8.10423 15.172 7.99874 14.8918 7.99874 14.5997C7.99874 14.3076 8.10423 14.0275 8.292 13.8209L12.586 9.09973H1C0.734784 9.09973 0.48043 8.98384 0.292893 8.77755C0.105357 8.57126 0 8.29147 0 7.99973Z" fill="white"/>
</svg>
