<svg width="10" height="19" viewBox="0 0 10 19" fill="none" xmlns="http://www.w3.org/2000/svg">
<path d="M1.74803 18.7057C1.4365 18.7063 1.13458 18.5978 0.8947 18.399C0.759689 18.2871 0.648086 18.1496 0.566284 17.9945C0.484481 17.8393 0.434086 17.6696 0.417985 17.4949C0.401884 17.3203 0.420393 17.1442 0.472452 16.9767C0.524512 16.8093 0.609097 16.6537 0.721366 16.519L6.6947 9.37232L0.934701 2.21232C0.823946 2.07593 0.741237 1.919 0.691328 1.75055C0.641419 1.5821 0.625294 1.40544 0.64388 1.23074C0.662465 1.05604 0.715394 0.886727 0.799626 0.732544C0.883858 0.578362 0.997731 0.442347 1.1347 0.332316C1.27265 0.210935 1.43421 0.119378 1.60923 0.0633924C1.78424 0.00740701 1.96894 -0.0117979 2.15173 0.00698193C2.33452 0.0257618 2.51146 0.0821214 2.67144 0.172524C2.83141 0.262926 2.97098 0.38542 3.08137 0.532317L9.52137 8.53232C9.71748 8.77089 9.82468 9.07015 9.82468 9.37898C9.82468 9.68782 9.71748 9.98707 9.52137 10.2257L2.8547 18.2257C2.72094 18.387 2.55103 18.5146 2.35875 18.598C2.16647 18.6814 1.95724 18.7183 1.74803 18.7057Z" fill="#6CA715"/>
</svg>
