<svg width="10" height="19" viewBox="0 0 10 19" fill="none" xmlns="http://www.w3.org/2000/svg">
<path d="M8.07667 0.29435C8.38821 0.293741 8.69013 0.402241 8.93001 0.601015C9.06502 0.712948 9.17662 0.850416 9.25842 1.00555C9.34023 1.16068 9.39062 1.33042 9.40672 1.50505C9.42282 1.67969 9.40432 1.85579 9.35226 2.02326C9.3002 2.19073 9.21561 2.34628 9.10334 2.48101L3.13001 9.62768L8.89001 16.7877C9.00076 16.9241 9.08347 17.081 9.13338 17.2494C9.18329 17.4179 9.19941 17.5946 9.18083 17.7693C9.16224 17.944 9.10931 18.1133 9.02508 18.2675C8.94085 18.4216 8.82698 18.5577 8.69001 18.6677C8.55205 18.7891 8.3905 18.8806 8.21548 18.9366C8.04046 18.9926 7.85576 19.0118 7.67297 18.993C7.49018 18.9742 7.31325 18.9179 7.15327 18.8275C6.99329 18.7371 6.85373 18.6146 6.74334 18.4677L0.303341 10.4677C0.107232 10.2291 2.36811e-05 9.92985 2.37081e-05 9.62101C2.37351e-05 9.31218 0.107232 9.01293 0.303341 8.77435L6.97001 0.774349C7.10376 0.612993 7.27368 0.485441 7.46596 0.402042C7.65824 0.318645 7.86747 0.281748 8.07667 0.29435Z" fill="#333333" fill-opacity="0.1"/>
</svg>
